<svg id="visual" viewBox="0 0 900 600" width="900" height="600" xmlns="http://www.w3.org/2000/svg" xmlns:xlink="http://www.w3.org/1999/xlink" version="1.1"><g transform="translate(440.6289789615375 326.65482872670077)"><path d="M162.4 -196.4C219.9 -145.4 282.3 -103.1 295.6 -49C308.9 5.1 273.1 71.1 226.3 110.6C179.6 150.1 121.9 163.1 63.4 192.1C5 221.1 -54.1 266.1 -118.9 268C-183.7 269.9 -254.2 228.7 -273.6 170.1C-293 111.5 -261.2 35.5 -243.3 -38.9C-225.4 -113.3 -221.3 -186.1 -183.1 -240.5C-144.8 -294.9 -72.4 -331 -10 -319.1C52.5 -307.2 105 -247.5 162.4 -196.4" fill="#21325E"></path></g></svg>