<svg id="visual" viewBox="0 0 900 600" width="900" height="600" xmlns="http://www.w3.org/2000/svg" xmlns:xlink="http://www.w3.org/1999/xlink" version="1.1"><rect x="0" y="0" width="900" height="600" fill="#FF0066"></rect><g transform="translate(445.2278303021774 291.8054040337828)"><path d="M170.3 -187C224.5 -157.5 274.7 -107.4 282.6 -51.5C290.6 4.5 256.1 66.2 218.6 121.5C181.1 176.8 140.5 225.6 86.4 251.4C32.3 277.2 -35.3 280 -88.6 255.5C-142 230.9 -181 178.9 -213 123.1C-245.1 67.3 -270.3 7.6 -273.8 -61.4C-277.3 -130.5 -259.2 -208.9 -209.9 -239.3C-160.7 -269.6 -80.3 -252 -11.1 -238.7C58.1 -225.5 116.1 -216.5 170.3 -187" fill="#BB004B"></path></g></svg>