<svg id="visual" viewBox="0 0 900 600" width="900" height="600" xmlns="http://www.w3.org/2000/svg" xmlns:xlink="http://www.w3.org/1999/xlink" version="1.1"><path d="M0 188L15 195.5C30 203 60 218 90 210.5C120 203 150 173 180 167.5C210 162 240 181 270 186C300 191 330 182 360 172.2C390 162.3 420 151.7 450 145.5C480 139.3 510 137.7 540 138.2C570 138.7 600 141.3 630 138.2C660 135 690 126 720 134.3C750 142.7 780 168.3 810 187.5C840 206.7 870 219.3 885 225.7L900 232L900 0L885 0C870 0 840 0 810 0C780 0 750 0 720 0C690 0 660 0 630 0C600 0 570 0 540 0C510 0 480 0 450 0C420 0 390 0 360 0C330 0 300 0 270 0C240 0 210 0 180 0C150 0 120 0 90 0C60 0 30 0 15 0L0 0Z" fill="#50D890"></path><path d="M0 149L15 152.8C30 156.7 60 164.3 90 174C120 183.7 150 195.3 180 199.5C210 203.7 240 200.3 270 189.2C300 178 330 159 360 146.5C390 134 420 128 450 122.5C480 117 510 112 540 113.8C570 115.7 600 124.3 630 122.5C660 120.7 690 108.3 720 111.5C750 114.7 780 133.3 810 133.2C840 133 870 114 885 104.5L900 95L900 0L885 0C870 0 840 0 810 0C780 0 750 0 720 0C690 0 660 0 630 0C600 0 570 0 540 0C510 0 480 0 450 0C420 0 390 0 360 0C330 0 300 0 270 0C240 0 210 0 180 0C150 0 120 0 90 0C60 0 30 0 15 0L0 0Z" fill="#272727"></path><path d="M0 121L15 116.8C30 112.7 60 104.3 90 109.2C120 114 150 132 180 143.5C210 155 240 160 270 145.8C300 131.7 330 98.3 360 90C390 81.7 420 98.3 450 104C480 109.7 510 104.3 540 97.2C570 90 600 81 630 88.7C660 96.3 690 120.7 720 127.2C750 133.7 780 122.3 810 119.8C840 117.3 870 123.7 885 126.8L900 130L900 0L885 0C870 0 840 0 810 0C780 0 750 0 720 0C690 0 660 0 630 0C600 0 570 0 540 0C510 0 480 0 450 0C420 0 390 0 360 0C330 0 300 0 270 0C240 0 210 0 180 0C150 0 120 0 90 0C60 0 30 0 15 0L0 0Z" fill="#008cff"></path><path d="M0 57L15 67.5C30 78 60 99 90 99.8C120 100.7 150 81.3 180 81.5C210 81.7 240 101.3 270 98.8C300 96.3 330 71.7 360 59.8C390 48 420 49 450 54.2C480 59.3 510 68.7 540 74.3C570 80 600 82 630 81.3C660 80.7 690 77.3 720 83.7C750 90 780 106 810 109.5C840 113 870 104 885 99.5L900 95L900 0L885 0C870 0 840 0 810 0C780 0 750 0 720 0C690 0 660 0 630 0C600 0 570 0 540 0C510 0 480 0 450 0C420 0 390 0 360 0C330 0 300 0 270 0C240 0 210 0 180 0C150 0 120 0 90 0C60 0 30 0 15 0L0 0Z" fill="#50D890"></path><path d="M0 58L15 51.8C30 45.7 60 33.3 90 36.3C120 39.3 150 57.7 180 60.3C210 63 240 50 270 41.8C300 33.7 330 30.3 360 31.7C390 33 420 39 450 38.3C480 37.7 510 30.3 540 26.5C570 22.7 600 22.3 630 26C660 29.7 690 37.3 720 46.5C750 55.7 780 66.3 810 62.7C840 59 870 41 885 32L900 23L900 0L885 0C870 0 840 0 810 0C780 0 750 0 720 0C690 0 660 0 630 0C600 0 570 0 540 0C510 0 480 0 450 0C420 0 390 0 360 0C330 0 300 0 270 0C240 0 210 0 180 0C150 0 120 0 90 0C60 0 30 0 15 0L0 0Z" fill="#50D890"></path></svg>