<svg id="visual" viewBox="0 0 900 600" width="900" height="600" xmlns="http://www.w3.org/2000/svg" xmlns:xlink="http://www.w3.org/1999/xlink" version="1.1"><path d="M0 410L15 402.5C30 395 60 380 90 387.5C120 395 150 425 180 430.5C210 436 240 417 270 412C300 407 330 416 360 425.8C390 435.7 420 446.3 450 452.5C480 458.7 510 460.3 540 459.8C570 459.3 600 456.7 630 459.8C660 463 690 472 720 463.7C750 455.3 780 429.7 810 410.5C840 391.3 870 378.7 885 372.3L900 366L900 601L885 601C870 601 840 601 810 601C780 601 750 601 720 601C690 601 660 601 630 601C600 601 570 601 540 601C510 601 480 601 450 601C420 601 390 601 360 601C330 601 300 601 270 601C240 601 210 601 180 601C150 601 120 601 90 601C60 601 30 601 15 601L0 601Z" fill="#0066ff"></path><path d="M0 449L15 445.2C30 441.3 60 433.7 90 424C120 414.3 150 402.7 180 398.5C210 394.3 240 397.7 270 408.8C300 420 330 439 360 451.5C390 464 420 470 450 475.5C480 481 510 486 540 484.2C570 482.3 600 473.7 630 475.5C660 477.3 690 489.7 720 486.5C750 483.3 780 464.7 810 464.8C840 465 870 484 885 493.5L900 503L900 601L885 601C870 601 840 601 810 601C780 601 750 601 720 601C690 601 660 601 630 601C600 601 570 601 540 601C510 601 480 601 450 601C420 601 390 601 360 601C330 601 300 601 270 601C240 601 210 601 180 601C150 601 120 601 90 601C60 601 30 601 15 601L0 601Z" fill="#007aff"></path><path d="M0 477L15 481.2C30 485.3 60 493.7 90 488.8C120 484 150 466 180 454.5C210 443 240 438 270 452.2C300 466.3 330 499.7 360 508C390 516.3 420 499.7 450 494C480 488.3 510 493.7 540 500.8C570 508 600 517 630 509.3C660 501.7 690 477.3 720 470.8C750 464.3 780 475.7 810 478.2C840 480.7 870 474.3 885 471.2L900 468L900 601L885 601C870 601 840 601 810 601C780 601 750 601 720 601C690 601 660 601 630 601C600 601 570 601 540 601C510 601 480 601 450 601C420 601 390 601 360 601C330 601 300 601 270 601C240 601 210 601 180 601C150 601 120 601 90 601C60 601 30 601 15 601L0 601Z" fill="#008cff"></path><path d="M0 541L15 530.5C30 520 60 499 90 498.2C120 497.3 150 516.7 180 516.5C210 516.3 240 496.7 270 499.2C300 501.7 330 526.3 360 538.2C390 550 420 549 450 543.8C480 538.7 510 529.3 540 523.7C570 518 600 516 630 516.7C660 517.3 690 520.7 720 514.3C750 508 780 492 810 488.5C840 485 870 494 885 498.5L900 503L900 601L885 601C870 601 840 601 810 601C780 601 750 601 720 601C690 601 660 601 630 601C600 601 570 601 540 601C510 601 480 601 450 601C420 601 390 601 360 601C330 601 300 601 270 601C240 601 210 601 180 601C150 601 120 601 90 601C60 601 30 601 15 601L0 601Z" fill="#2b9dfc"></path><path d="M0 540L15 546.2C30 552.3 60 564.7 90 561.8C120 559 150 541 180 538.3C210 535.7 240 548.3 270 556.3C300 564.3 330 567.7 360 566.3C390 565 420 559 450 559.7C480 560.3 510 567.7 540 571.5C570 575.3 600 575.7 630 572C660 568.3 690 560.7 720 551.5C750 542.3 780 531.7 810 535.3C840 539 870 557 885 566L900 575L900 601L885 601C870 601 840 601 810 601C780 601 750 601 720 601C690 601 660 601 630 601C600 601 570 601 540 601C510 601 480 601 450 601C420 601 390 601 360 601C330 601 300 601 270 601C240 601 210 601 180 601C150 601 120 601 90 601C60 601 30 601 15 601L0 601Z" fill="#4facf7"></path></svg>