<svg id="visual" viewBox="0 0 900 600" width="900" height="600" xmlns="http://www.w3.org/2000/svg" xmlns:xlink="http://www.w3.org/1999/xlink" version="1.1"><path d="M0 405L21.5 398C43 391 86 377 128.8 383.2C171.7 389.3 214.3 415.7 257.2 416.7C300 417.7 343 393.3 385.8 387.3C428.7 381.3 471.3 393.7 514.2 391.7C557 389.7 600 373.3 642.8 368.7C685.7 364 728.3 371 771.2 380.2C814 389.3 857 400.7 878.5 406.3L900 412L900 601L878.5 601C857 601 814 601 771.2 601C728.3 601 685.7 601 642.8 601C600 601 557 601 514.2 601C471.3 601 428.7 601 385.8 601C343 601 300 601 257.2 601C214.3 601 171.7 601 128.8 601C86 601 43 601 21.5 601L0 601Z" fill="#0066ff"></path><path d="M0 436L21.5 432.2C43 428.3 86 420.7 128.8 420.8C171.7 421 214.3 429 257.2 434.5C300 440 343 443 385.8 448.2C428.7 453.3 471.3 460.7 514.2 464.3C557 468 600 468 642.8 463.3C685.7 458.7 728.3 449.3 771.2 443.3C814 437.3 857 434.7 878.5 433.3L900 432L900 601L878.5 601C857 601 814 601 771.2 601C728.3 601 685.7 601 642.8 601C600 601 557 601 514.2 601C471.3 601 428.7 601 385.8 601C343 601 300 601 257.2 601C214.3 601 171.7 601 128.8 601C86 601 43 601 21.5 601L0 601Z" fill="#007aff"></path><path d="M0 439L21.5 442.3C43 445.7 86 452.3 128.8 461.8C171.7 471.3 214.3 483.7 257.2 488.5C300 493.3 343 490.7 385.8 485.8C428.7 481 471.3 474 514.2 474.3C557 474.7 600 482.3 642.8 485.3C685.7 488.3 728.3 486.7 771.2 487.2C814 487.7 857 490.3 878.5 491.7L900 493L900 601L878.5 601C857 601 814 601 771.2 601C728.3 601 685.7 601 642.8 601C600 601 557 601 514.2 601C471.3 601 428.7 601 385.8 601C343 601 300 601 257.2 601C214.3 601 171.7 601 128.8 601C86 601 43 601 21.5 601L0 601Z" fill="#008cff"></path><path d="M0 508L21.5 508C43 508 86 508 128.8 508.3C171.7 508.7 214.3 509.3 257.2 505.7C300 502 343 494 385.8 496.7C428.7 499.3 471.3 512.7 514.2 520C557 527.3 600 528.7 642.8 525.3C685.7 522 728.3 514 771.2 511.2C814 508.3 857 510.7 878.5 511.8L900 513L900 601L878.5 601C857 601 814 601 771.2 601C728.3 601 685.7 601 642.8 601C600 601 557 601 514.2 601C471.3 601 428.7 601 385.8 601C343 601 300 601 257.2 601C214.3 601 171.7 601 128.8 601C86 601 43 601 21.5 601L0 601Z" fill="#2b9dfc"></path><path d="M0 529L21.5 535C43 541 86 553 128.8 553.8C171.7 554.7 214.3 544.3 257.2 538.3C300 532.3 343 530.7 385.8 532.5C428.7 534.3 471.3 539.7 514.2 542C557 544.3 600 543.7 642.8 548C685.7 552.3 728.3 561.7 771.2 564.7C814 567.7 857 564.3 878.5 562.7L900 561L900 601L878.5 601C857 601 814 601 771.2 601C728.3 601 685.7 601 642.8 601C600 601 557 601 514.2 601C471.3 601 428.7 601 385.8 601C343 601 300 601 257.2 601C214.3 601 171.7 601 128.8 601C86 601 43 601 21.5 601L0 601Z" fill="#4facf7"></path></svg>